<svg width="40" height="40" viewBox="0 0 40 40" fill="none" xmlns="http://www.w3.org/2000/svg">
<path fill-rule="evenodd" clip-rule="evenodd" d="M39.2418 4.41553C39.4819 4.17564 39.6725 3.89079 39.8026 3.57725C39.9327 3.26371 39.9998 2.92761 40 2.58815C40.0002 2.24868 39.9335 1.9125 39.8038 1.5988C39.6741 1.2851 39.4839 1.00002 39.244 0.759832C39.0041 0.519648 38.7193 0.329066 38.4057 0.198966C38.0922 0.0688664 37.7561 0.00179753 37.4167 0.00158889C37.0772 0.00138025 36.741 0.0680359 36.4273 0.19775C36.1136 0.327464 35.8286 0.517696 35.5884 0.757585L19.9997 16.3465L4.41546 0.757585C3.93039 0.272511 3.2725 -5.11108e-09 2.58652 0C1.90053 5.11108e-09 1.24264 0.272511 0.757573 0.757585C0.272507 1.24266 5.111e-09 1.90056 0 2.58656C-5.111e-09 3.27256 0.272507 3.93046 0.757573 4.41553L16.3463 20L0.757573 35.5845C0.517392 35.8247 0.326871 36.1098 0.196886 36.4236C0.0669018 36.7374 0 37.0738 0 37.4134C0 37.7531 0.0669018 38.0895 0.196886 38.4033C0.326871 38.7171 0.517392 39.0022 0.757573 39.2424C1.24264 39.7275 1.90053 40 2.58652 40C2.92618 40 3.26252 39.9331 3.57633 39.8031C3.89014 39.6731 4.17528 39.4826 4.41546 39.2424L19.9997 23.6535L35.5884 39.2424C36.0734 39.7269 36.7311 39.9988 37.4167 39.9984C38.1022 39.998 38.7595 39.7252 39.244 39.2402C39.7285 38.7551 40.0004 38.0974 40 37.4118C39.9996 36.7263 39.7268 36.0689 39.2418 35.5845L23.6531 20L39.2418 4.41553Z" fill="#3498DB"/>
</svg>
